<svg xmlns="http://www.w3.org/2000/svg" xmlns:xlink="http://www.w3.org/1999/xlink" width="500" zoomAndPan="magnify" viewBox="0 0 375 374.999991" height="500" preserveAspectRatio="xMidYMid meet" version="1.0"><defs><g/><clipPath id="eae788924d"><path d="M 37.5 37.5 L 337.5 37.5 L 337.5 337.5 L 37.5 337.5 Z M 37.5 37.5 " clip-rule="nonzero"/></clipPath><clipPath id="4c015f7904"><path d="M 54.75 37.5 L 320.25 37.5 C 324.824219 37.5 329.210938 39.316406 332.449219 42.550781 C 335.683594 45.789062 337.5 50.175781 337.5 54.75 L 337.5 320.25 C 337.5 324.824219 335.683594 329.210938 332.449219 332.449219 C 329.210938 335.683594 324.824219 337.5 320.25 337.5 L 54.75 337.5 C 50.175781 337.5 45.789062 335.683594 42.550781 332.449219 C 39.316406 329.210938 37.5 324.824219 37.5 320.25 L 37.5 54.75 C 37.5 50.175781 39.316406 45.789062 42.550781 42.550781 C 45.789062 39.316406 50.175781 37.5 54.75 37.5 Z M 54.75 37.5 " clip-rule="nonzero"/></clipPath><linearGradient x1="-0.00000133333" gradientTransform="matrix(1.171875, 0, 0, 1.171875, 37.500004, 37.499999)" y1="-0.00000133333" x2="255.999988" gradientUnits="userSpaceOnUse" y2="255.999988" id="0fa2179932"><stop stop-opacity="1" stop-color="rgb(21.998596%, 35.699463%, 97.599792%)" offset="0"/><stop stop-opacity="1" stop-color="rgb(22.203064%, 35.949707%, 97.447205%)" offset="0.00390625"/><stop stop-opacity="1" stop-color="rgb(22.409058%, 36.201477%, 97.296143%)" offset="0.0078125"/><stop stop-opacity="1" stop-color="rgb(22.613525%, 36.451721%, 97.143555%)" offset="0.0117187"/><stop stop-opacity="1" stop-color="rgb(22.819519%, 36.703491%, 96.992493%)" offset="0.015625"/><stop stop-opacity="1" stop-color="rgb(23.023987%, 36.953735%, 96.841431%)" offset="0.0195312"/><stop stop-opacity="1" stop-color="rgb(23.22998%, 37.205505%, 96.690369%)" offset="0.0234375"/><stop stop-opacity="1" stop-color="rgb(23.434448%, 37.457275%, 96.537781%)" offset="0.0273437"/><stop stop-opacity="1" stop-color="rgb(23.640442%, 37.709045%, 96.386719%)" offset="0.03125"/><stop stop-opacity="1" stop-color="rgb(23.84491%, 37.95929%, 96.234131%)" offset="0.0351562"/><stop stop-opacity="1" stop-color="rgb(24.049377%, 38.21106%, 96.083069%)" offset="0.0390625"/><stop stop-opacity="1" stop-color="rgb(24.253845%, 38.461304%, 95.932007%)" offset="0.0429687"/><stop stop-opacity="1" stop-color="rgb(24.459839%, 38.713074%, 95.780945%)" offset="0.046875"/><stop stop-opacity="1" stop-color="rgb(24.664307%, 38.963318%, 95.628357%)" offset="0.0507812"/><stop stop-opacity="1" stop-color="rgb(24.8703%, 39.215088%, 95.477295%)" offset="0.0546875"/><stop stop-opacity="1" stop-color="rgb(25.074768%, 39.466858%, 95.324707%)" offset="0.0585937"/><stop stop-opacity="1" stop-color="rgb(25.280762%, 39.718628%, 95.173645%)" offset="0.0625"/><stop stop-opacity="1" stop-color="rgb(25.485229%, 39.968872%, 95.022583%)" offset="0.0664062"/><stop stop-opacity="1" stop-color="rgb(25.691223%, 40.220642%, 94.871521%)" offset="0.0703125"/><stop stop-opacity="1" stop-color="rgb(25.895691%, 40.470886%, 94.718933%)" offset="0.0742187"/><stop stop-opacity="1" stop-color="rgb(26.100159%, 40.722656%, 94.567871%)" offset="0.078125"/><stop stop-opacity="1" stop-color="rgb(26.304626%, 40.9729%, 94.415283%)" offset="0.0820312"/><stop stop-opacity="1" stop-color="rgb(26.51062%, 41.22467%, 94.264221%)" offset="0.0859375"/><stop stop-opacity="1" stop-color="rgb(26.715088%, 41.474915%, 94.113159%)" offset="0.0898437"/><stop stop-opacity="1" stop-color="rgb(26.921082%, 41.726685%, 93.962097%)" offset="0.09375"/><stop stop-opacity="1" stop-color="rgb(27.125549%, 41.978455%, 93.809509%)" offset="0.0976562"/><stop stop-opacity="1" stop-color="rgb(27.331543%, 42.230225%, 93.658447%)" offset="0.101562"/><stop stop-opacity="1" stop-color="rgb(27.536011%, 42.480469%, 93.505859%)" offset="0.105469"/><stop stop-opacity="1" stop-color="rgb(27.742004%, 42.732239%, 93.354797%)" offset="0.109375"/><stop stop-opacity="1" stop-color="rgb(27.946472%, 42.982483%, 93.203735%)" offset="0.113281"/><stop stop-opacity="1" stop-color="rgb(28.15094%, 43.234253%, 93.052673%)" offset="0.117187"/><stop stop-opacity="1" stop-color="rgb(28.355408%, 43.484497%, 92.900085%)" offset="0.121094"/><stop stop-opacity="1" stop-color="rgb(28.561401%, 43.736267%, 92.749023%)" offset="0.125"/><stop stop-opacity="1" stop-color="rgb(28.765869%, 43.988037%, 92.596436%)" offset="0.128906"/><stop stop-opacity="1" stop-color="rgb(28.971863%, 44.239807%, 92.445374%)" offset="0.132812"/><stop stop-opacity="1" stop-color="rgb(29.176331%, 44.490051%, 92.294312%)" offset="0.136719"/><stop stop-opacity="1" stop-color="rgb(29.382324%, 44.741821%, 92.14325%)" offset="0.140625"/><stop stop-opacity="1" stop-color="rgb(29.586792%, 44.992065%, 91.990662%)" offset="0.144531"/><stop stop-opacity="1" stop-color="rgb(29.792786%, 45.243835%, 91.8396%)" offset="0.148437"/><stop stop-opacity="1" stop-color="rgb(29.997253%, 45.49408%, 91.688538%)" offset="0.152344"/><stop stop-opacity="1" stop-color="rgb(30.201721%, 45.74585%, 91.537476%)" offset="0.15625"/><stop stop-opacity="1" stop-color="rgb(30.406189%, 45.996094%, 91.384888%)" offset="0.160156"/><stop stop-opacity="1" stop-color="rgb(30.612183%, 46.247864%, 91.233826%)" offset="0.164062"/><stop stop-opacity="1" stop-color="rgb(30.81665%, 46.499634%, 91.081238%)" offset="0.167969"/><stop stop-opacity="1" stop-color="rgb(31.022644%, 46.751404%, 90.930176%)" offset="0.171875"/><stop stop-opacity="1" stop-color="rgb(31.227112%, 47.001648%, 90.779114%)" offset="0.175781"/><stop stop-opacity="1" stop-color="rgb(31.433105%, 47.253418%, 90.628052%)" offset="0.179687"/><stop stop-opacity="1" stop-color="rgb(31.637573%, 47.503662%, 90.475464%)" offset="0.183594"/><stop stop-opacity="1" stop-color="rgb(31.843567%, 47.755432%, 90.324402%)" offset="0.1875"/><stop stop-opacity="1" stop-color="rgb(32.048035%, 48.005676%, 90.171814%)" offset="0.191406"/><stop stop-opacity="1" stop-color="rgb(32.252502%, 48.257446%, 90.020752%)" offset="0.195312"/><stop stop-opacity="1" stop-color="rgb(32.45697%, 48.50769%, 89.86969%)" offset="0.199219"/><stop stop-opacity="1" stop-color="rgb(32.662964%, 48.75946%, 89.718628%)" offset="0.203125"/><stop stop-opacity="1" stop-color="rgb(32.867432%, 49.01123%, 89.56604%)" offset="0.207031"/><stop stop-opacity="1" stop-color="rgb(33.073425%, 49.263%, 89.414978%)" offset="0.210937"/><stop stop-opacity="1" stop-color="rgb(33.277893%, 49.513245%, 89.26239%)" offset="0.214844"/><stop stop-opacity="1" stop-color="rgb(33.483887%, 49.765015%, 89.111328%)" offset="0.21875"/><stop stop-opacity="1" stop-color="rgb(33.688354%, 50.015259%, 88.960266%)" offset="0.222656"/><stop stop-opacity="1" stop-color="rgb(33.894348%, 50.267029%, 88.809204%)" offset="0.226562"/><stop stop-opacity="1" stop-color="rgb(34.098816%, 50.517273%, 88.656616%)" offset="0.230469"/><stop stop-opacity="1" stop-color="rgb(34.303284%, 50.769043%, 88.505554%)" offset="0.234375"/><stop stop-opacity="1" stop-color="rgb(34.507751%, 51.020813%, 88.352966%)" offset="0.238281"/><stop stop-opacity="1" stop-color="rgb(34.713745%, 51.272583%, 88.201904%)" offset="0.242187"/><stop stop-opacity="1" stop-color="rgb(34.918213%, 51.522827%, 88.050842%)" offset="0.246094"/><stop stop-opacity="1" stop-color="rgb(35.124207%, 51.774597%, 87.89978%)" offset="0.25"/><stop stop-opacity="1" stop-color="rgb(35.328674%, 52.024841%, 87.747192%)" offset="0.253906"/><stop stop-opacity="1" stop-color="rgb(35.534668%, 52.276611%, 87.59613%)" offset="0.257812"/><stop stop-opacity="1" stop-color="rgb(35.739136%, 52.526855%, 87.443542%)" offset="0.261719"/><stop stop-opacity="1" stop-color="rgb(35.945129%, 52.778625%, 87.29248%)" offset="0.265625"/><stop stop-opacity="1" stop-color="rgb(36.149597%, 53.02887%, 87.141418%)" offset="0.269531"/><stop stop-opacity="1" stop-color="rgb(36.354065%, 53.28064%, 86.990356%)" offset="0.273438"/><stop stop-opacity="1" stop-color="rgb(36.558533%, 53.53241%, 86.837769%)" offset="0.277344"/><stop stop-opacity="1" stop-color="rgb(36.764526%, 53.78418%, 86.686707%)" offset="0.28125"/><stop stop-opacity="1" stop-color="rgb(36.968994%, 54.034424%, 86.534119%)" offset="0.285156"/><stop stop-opacity="1" stop-color="rgb(37.174988%, 54.286194%, 86.383057%)" offset="0.289062"/><stop stop-opacity="1" stop-color="rgb(37.379456%, 54.536438%, 86.231995%)" offset="0.292969"/><stop stop-opacity="1" stop-color="rgb(37.585449%, 54.788208%, 86.080933%)" offset="0.296875"/><stop stop-opacity="1" stop-color="rgb(37.789917%, 55.038452%, 85.928345%)" offset="0.300781"/><stop stop-opacity="1" stop-color="rgb(37.995911%, 55.290222%, 85.777283%)" offset="0.304688"/><stop stop-opacity="1" stop-color="rgb(38.200378%, 55.540466%, 85.624695%)" offset="0.308594"/><stop stop-opacity="1" stop-color="rgb(38.404846%, 55.792236%, 85.473633%)" offset="0.3125"/><stop stop-opacity="1" stop-color="rgb(38.609314%, 56.044006%, 85.322571%)" offset="0.316406"/><stop stop-opacity="1" stop-color="rgb(38.815308%, 56.295776%, 85.171509%)" offset="0.320312"/><stop stop-opacity="1" stop-color="rgb(39.019775%, 56.546021%, 85.018921%)" offset="0.324219"/><stop stop-opacity="1" stop-color="rgb(39.225769%, 56.797791%, 84.867859%)" offset="0.328125"/><stop stop-opacity="1" stop-color="rgb(39.430237%, 57.048035%, 84.715271%)" offset="0.332031"/><stop stop-opacity="1" stop-color="rgb(39.63623%, 57.299805%, 84.564209%)" offset="0.335938"/><stop stop-opacity="1" stop-color="rgb(39.840698%, 57.550049%, 84.413147%)" offset="0.339844"/><stop stop-opacity="1" stop-color="rgb(40.046692%, 57.801819%, 84.262085%)" offset="0.34375"/><stop stop-opacity="1" stop-color="rgb(40.25116%, 58.053589%, 84.109497%)" offset="0.347656"/><stop stop-opacity="1" stop-color="rgb(40.455627%, 58.305359%, 83.958435%)" offset="0.351562"/><stop stop-opacity="1" stop-color="rgb(40.660095%, 58.555603%, 83.805847%)" offset="0.355469"/><stop stop-opacity="1" stop-color="rgb(40.866089%, 58.807373%, 83.654785%)" offset="0.359375"/><stop stop-opacity="1" stop-color="rgb(41.070557%, 59.057617%, 83.503723%)" offset="0.363281"/><stop stop-opacity="1" stop-color="rgb(41.27655%, 59.309387%, 83.352661%)" offset="0.367188"/><stop stop-opacity="1" stop-color="rgb(41.481018%, 59.559631%, 83.200073%)" offset="0.371094"/><stop stop-opacity="1" stop-color="rgb(41.687012%, 59.811401%, 83.049011%)" offset="0.375"/><stop stop-opacity="1" stop-color="rgb(41.891479%, 60.061646%, 82.896423%)" offset="0.378906"/><stop stop-opacity="1" stop-color="rgb(42.097473%, 60.313416%, 82.745361%)" offset="0.382812"/><stop stop-opacity="1" stop-color="rgb(42.301941%, 60.565186%, 82.594299%)" offset="0.386719"/><stop stop-opacity="1" stop-color="rgb(42.506409%, 60.816956%, 82.443237%)" offset="0.390625"/><stop stop-opacity="1" stop-color="rgb(42.710876%, 61.0672%, 82.290649%)" offset="0.394531"/><stop stop-opacity="1" stop-color="rgb(42.91687%, 61.31897%, 82.139587%)" offset="0.398438"/><stop stop-opacity="1" stop-color="rgb(43.121338%, 61.569214%, 81.988525%)" offset="0.402344"/><stop stop-opacity="1" stop-color="rgb(43.327332%, 61.820984%, 81.837463%)" offset="0.40625"/><stop stop-opacity="1" stop-color="rgb(43.531799%, 62.071228%, 81.684875%)" offset="0.410156"/><stop stop-opacity="1" stop-color="rgb(43.737793%, 62.322998%, 81.533813%)" offset="0.414062"/><stop stop-opacity="1" stop-color="rgb(43.942261%, 62.574768%, 81.381226%)" offset="0.417969"/><stop stop-opacity="1" stop-color="rgb(44.148254%, 62.826538%, 81.230164%)" offset="0.421875"/><stop stop-opacity="1" stop-color="rgb(44.352722%, 63.076782%, 81.079102%)" offset="0.425781"/><stop stop-opacity="1" stop-color="rgb(44.55719%, 63.328552%, 80.92804%)" offset="0.429688"/><stop stop-opacity="1" stop-color="rgb(44.761658%, 63.578796%, 80.775452%)" offset="0.433594"/><stop stop-opacity="1" stop-color="rgb(44.967651%, 63.830566%, 80.62439%)" offset="0.4375"/><stop stop-opacity="1" stop-color="rgb(45.172119%, 64.080811%, 80.471802%)" offset="0.441406"/><stop stop-opacity="1" stop-color="rgb(45.378113%, 64.332581%, 80.32074%)" offset="0.445312"/><stop stop-opacity="1" stop-color="rgb(45.582581%, 64.582825%, 80.169678%)" offset="0.449219"/><stop stop-opacity="1" stop-color="rgb(45.788574%, 64.834595%, 80.018616%)" offset="0.453125"/><stop stop-opacity="1" stop-color="rgb(45.993042%, 65.086365%, 79.866028%)" offset="0.457031"/><stop stop-opacity="1" stop-color="rgb(46.199036%, 65.338135%, 79.714966%)" offset="0.460938"/><stop stop-opacity="1" stop-color="rgb(46.403503%, 65.588379%, 79.562378%)" offset="0.464844"/><stop stop-opacity="1" stop-color="rgb(46.607971%, 65.840149%, 79.411316%)" offset="0.46875"/><stop stop-opacity="1" stop-color="rgb(46.812439%, 66.090393%, 79.260254%)" offset="0.472656"/><stop stop-opacity="1" stop-color="rgb(47.018433%, 66.342163%, 79.109192%)" offset="0.476562"/><stop stop-opacity="1" stop-color="rgb(47.2229%, 66.592407%, 78.956604%)" offset="0.480469"/><stop stop-opacity="1" stop-color="rgb(47.428894%, 66.844177%, 78.805542%)" offset="0.484375"/><stop stop-opacity="1" stop-color="rgb(47.633362%, 67.094421%, 78.652954%)" offset="0.488281"/><stop stop-opacity="1" stop-color="rgb(47.839355%, 67.346191%, 78.501892%)" offset="0.492188"/><stop stop-opacity="1" stop-color="rgb(48.043823%, 67.597961%, 78.35083%)" offset="0.496094"/><stop stop-opacity="1" stop-color="rgb(48.249817%, 67.849731%, 78.199768%)" offset="0.5"/><stop stop-opacity="1" stop-color="rgb(48.454285%, 68.099976%, 78.04718%)" offset="0.503906"/><stop stop-opacity="1" stop-color="rgb(48.658752%, 68.351746%, 77.896118%)" offset="0.507812"/><stop stop-opacity="1" stop-color="rgb(48.86322%, 68.60199%, 77.74353%)" offset="0.511719"/><stop stop-opacity="1" stop-color="rgb(49.069214%, 68.85376%, 77.592468%)" offset="0.515625"/><stop stop-opacity="1" stop-color="rgb(49.273682%, 69.104004%, 77.441406%)" offset="0.519531"/><stop stop-opacity="1" stop-color="rgb(49.479675%, 69.355774%, 77.290344%)" offset="0.523438"/><stop stop-opacity="1" stop-color="rgb(49.684143%, 69.607544%, 77.137756%)" offset="0.527344"/><stop stop-opacity="1" stop-color="rgb(49.890137%, 69.859314%, 76.986694%)" offset="0.53125"/><stop stop-opacity="1" stop-color="rgb(50.094604%, 70.109558%, 76.834106%)" offset="0.535156"/><stop stop-opacity="1" stop-color="rgb(50.300598%, 70.361328%, 76.683044%)" offset="0.539062"/><stop stop-opacity="1" stop-color="rgb(50.505066%, 70.611572%, 76.531982%)" offset="0.542969"/><stop stop-opacity="1" stop-color="rgb(50.709534%, 70.863342%, 76.38092%)" offset="0.546875"/><stop stop-opacity="1" stop-color="rgb(50.914001%, 71.113586%, 76.228333%)" offset="0.550781"/><stop stop-opacity="1" stop-color="rgb(51.119995%, 71.365356%, 76.077271%)" offset="0.554688"/><stop stop-opacity="1" stop-color="rgb(51.324463%, 71.615601%, 75.924683%)" offset="0.558594"/><stop stop-opacity="1" stop-color="rgb(51.530457%, 71.867371%, 75.773621%)" offset="0.5625"/><stop stop-opacity="1" stop-color="rgb(51.734924%, 72.119141%, 75.622559%)" offset="0.566406"/><stop stop-opacity="1" stop-color="rgb(51.940918%, 72.370911%, 75.471497%)" offset="0.570312"/><stop stop-opacity="1" stop-color="rgb(52.145386%, 72.621155%, 75.318909%)" offset="0.574219"/><stop stop-opacity="1" stop-color="rgb(52.351379%, 72.872925%, 75.167847%)" offset="0.578125"/><stop stop-opacity="1" stop-color="rgb(52.555847%, 73.123169%, 75.015259%)" offset="0.582031"/><stop stop-opacity="1" stop-color="rgb(52.760315%, 73.374939%, 74.864197%)" offset="0.585938"/><stop stop-opacity="1" stop-color="rgb(52.964783%, 73.625183%, 74.713135%)" offset="0.589844"/><stop stop-opacity="1" stop-color="rgb(53.170776%, 73.876953%, 74.562073%)" offset="0.59375"/><stop stop-opacity="1" stop-color="rgb(53.375244%, 74.127197%, 74.409485%)" offset="0.597656"/><stop stop-opacity="1" stop-color="rgb(53.581238%, 74.378967%, 74.258423%)" offset="0.601562"/><stop stop-opacity="1" stop-color="rgb(53.785706%, 74.630737%, 74.105835%)" offset="0.605469"/><stop stop-opacity="1" stop-color="rgb(53.991699%, 74.882507%, 73.954773%)" offset="0.609375"/><stop stop-opacity="1" stop-color="rgb(54.196167%, 75.132751%, 73.803711%)" offset="0.613281"/><stop stop-opacity="1" stop-color="rgb(54.402161%, 75.384521%, 73.652649%)" offset="0.617188"/><stop stop-opacity="1" stop-color="rgb(54.606628%, 75.634766%, 73.500061%)" offset="0.621094"/><stop stop-opacity="1" stop-color="rgb(54.811096%, 75.886536%, 73.348999%)" offset="0.625"/><stop stop-opacity="1" stop-color="rgb(55.015564%, 76.13678%, 73.197937%)" offset="0.628906"/><stop stop-opacity="1" stop-color="rgb(55.221558%, 76.38855%, 73.046875%)" offset="0.632812"/><stop stop-opacity="1" stop-color="rgb(55.426025%, 76.64032%, 72.894287%)" offset="0.636719"/><stop stop-opacity="1" stop-color="rgb(55.632019%, 76.89209%, 72.743225%)" offset="0.640625"/><stop stop-opacity="1" stop-color="rgb(55.836487%, 77.142334%, 72.590637%)" offset="0.644531"/><stop stop-opacity="1" stop-color="rgb(56.04248%, 77.394104%, 72.439575%)" offset="0.648438"/><stop stop-opacity="1" stop-color="rgb(56.246948%, 77.644348%, 72.288513%)" offset="0.652344"/><stop stop-opacity="1" stop-color="rgb(56.452942%, 77.896118%, 72.137451%)" offset="0.65625"/><stop stop-opacity="1" stop-color="rgb(56.65741%, 78.146362%, 71.984863%)" offset="0.660156"/><stop stop-opacity="1" stop-color="rgb(56.861877%, 78.398132%, 71.833801%)" offset="0.664062"/><stop stop-opacity="1" stop-color="rgb(57.066345%, 78.648376%, 71.681213%)" offset="0.667969"/><stop stop-opacity="1" stop-color="rgb(57.272339%, 78.900146%, 71.530151%)" offset="0.671875"/><stop stop-opacity="1" stop-color="rgb(57.476807%, 79.151917%, 71.379089%)" offset="0.675781"/><stop stop-opacity="1" stop-color="rgb(57.6828%, 79.403687%, 71.228027%)" offset="0.679688"/><stop stop-opacity="1" stop-color="rgb(57.887268%, 79.653931%, 71.075439%)" offset="0.683594"/><stop stop-opacity="1" stop-color="rgb(58.093262%, 79.905701%, 70.924377%)" offset="0.6875"/><stop stop-opacity="1" stop-color="rgb(58.297729%, 80.155945%, 70.77179%)" offset="0.691406"/><stop stop-opacity="1" stop-color="rgb(58.503723%, 80.407715%, 70.620728%)" offset="0.695312"/><stop stop-opacity="1" stop-color="rgb(58.708191%, 80.657959%, 70.469666%)" offset="0.699219"/><stop stop-opacity="1" stop-color="rgb(58.912659%, 80.909729%, 70.318604%)" offset="0.703125"/><stop stop-opacity="1" stop-color="rgb(59.117126%, 81.161499%, 70.166016%)" offset="0.707031"/><stop stop-opacity="1" stop-color="rgb(59.32312%, 81.413269%, 70.014954%)" offset="0.710938"/><stop stop-opacity="1" stop-color="rgb(59.527588%, 81.663513%, 69.862366%)" offset="0.714844"/><stop stop-opacity="1" stop-color="rgb(59.733582%, 81.915283%, 69.711304%)" offset="0.71875"/><stop stop-opacity="1" stop-color="rgb(59.938049%, 82.165527%, 69.560242%)" offset="0.722656"/><stop stop-opacity="1" stop-color="rgb(60.144043%, 82.417297%, 69.40918%)" offset="0.726562"/><stop stop-opacity="1" stop-color="rgb(60.348511%, 82.667542%, 69.256592%)" offset="0.730469"/><stop stop-opacity="1" stop-color="rgb(60.554504%, 82.919312%, 69.10553%)" offset="0.734375"/><stop stop-opacity="1" stop-color="rgb(60.758972%, 83.169556%, 68.952942%)" offset="0.738281"/><stop stop-opacity="1" stop-color="rgb(60.96344%, 83.421326%, 68.80188%)" offset="0.742188"/><stop stop-opacity="1" stop-color="rgb(61.167908%, 83.673096%, 68.650818%)" offset="0.746094"/><stop stop-opacity="1" stop-color="rgb(61.373901%, 83.924866%, 68.499756%)" offset="0.75"/><stop stop-opacity="1" stop-color="rgb(61.578369%, 84.17511%, 68.347168%)" offset="0.753906"/><stop stop-opacity="1" stop-color="rgb(61.784363%, 84.42688%, 68.196106%)" offset="0.757812"/><stop stop-opacity="1" stop-color="rgb(61.988831%, 84.677124%, 68.043518%)" offset="0.761719"/><stop stop-opacity="1" stop-color="rgb(62.194824%, 84.928894%, 67.892456%)" offset="0.765625"/><stop stop-opacity="1" stop-color="rgb(62.399292%, 85.179138%, 67.741394%)" offset="0.769531"/><stop stop-opacity="1" stop-color="rgb(62.605286%, 85.430908%, 67.590332%)" offset="0.773438"/><stop stop-opacity="1" stop-color="rgb(62.809753%, 85.681152%, 67.437744%)" offset="0.777344"/><stop stop-opacity="1" stop-color="rgb(63.014221%, 85.932922%, 67.286682%)" offset="0.78125"/><stop stop-opacity="1" stop-color="rgb(63.218689%, 86.184692%, 67.134094%)" offset="0.785156"/><stop stop-opacity="1" stop-color="rgb(63.424683%, 86.436462%, 66.983032%)" offset="0.789062"/><stop stop-opacity="1" stop-color="rgb(63.62915%, 86.686707%, 66.83197%)" offset="0.792969"/><stop stop-opacity="1" stop-color="rgb(63.835144%, 86.938477%, 66.680908%)" offset="0.796875"/><stop stop-opacity="1" stop-color="rgb(64.039612%, 87.188721%, 66.52832%)" offset="0.800781"/><stop stop-opacity="1" stop-color="rgb(64.245605%, 87.440491%, 66.377258%)" offset="0.804688"/><stop stop-opacity="1" stop-color="rgb(64.450073%, 87.690735%, 66.22467%)" offset="0.808594"/><stop stop-opacity="1" stop-color="rgb(64.656067%, 87.942505%, 66.073608%)" offset="0.8125"/><stop stop-opacity="1" stop-color="rgb(64.860535%, 88.194275%, 65.922546%)" offset="0.816406"/><stop stop-opacity="1" stop-color="rgb(65.065002%, 88.446045%, 65.771484%)" offset="0.820312"/><stop stop-opacity="1" stop-color="rgb(65.26947%, 88.696289%, 65.618896%)" offset="0.824219"/><stop stop-opacity="1" stop-color="rgb(65.475464%, 88.948059%, 65.467834%)" offset="0.828125"/><stop stop-opacity="1" stop-color="rgb(65.679932%, 89.198303%, 65.315247%)" offset="0.832031"/><stop stop-opacity="1" stop-color="rgb(65.885925%, 89.450073%, 65.164185%)" offset="0.835938"/><stop stop-opacity="1" stop-color="rgb(66.090393%, 89.700317%, 65.013123%)" offset="0.839844"/><stop stop-opacity="1" stop-color="rgb(66.296387%, 89.952087%, 64.862061%)" offset="0.84375"/><stop stop-opacity="1" stop-color="rgb(66.500854%, 90.202332%, 64.709473%)" offset="0.847656"/><stop stop-opacity="1" stop-color="rgb(66.706848%, 90.454102%, 64.558411%)" offset="0.851562"/><stop stop-opacity="1" stop-color="rgb(66.911316%, 90.705872%, 64.405823%)" offset="0.855469"/><stop stop-opacity="1" stop-color="rgb(67.115784%, 90.957642%, 64.254761%)" offset="0.859375"/><stop stop-opacity="1" stop-color="rgb(67.320251%, 91.207886%, 64.103699%)" offset="0.863281"/><stop stop-opacity="1" stop-color="rgb(67.526245%, 91.459656%, 63.952637%)" offset="0.867188"/><stop stop-opacity="1" stop-color="rgb(67.730713%, 91.7099%, 63.800049%)" offset="0.871094"/><stop stop-opacity="1" stop-color="rgb(67.936707%, 91.96167%, 63.648987%)" offset="0.875"/><stop stop-opacity="1" stop-color="rgb(68.141174%, 92.211914%, 63.497925%)" offset="0.878906"/><stop stop-opacity="1" stop-color="rgb(68.347168%, 92.463684%, 63.346863%)" offset="0.882812"/><stop stop-opacity="1" stop-color="rgb(68.551636%, 92.713928%, 63.194275%)" offset="0.886719"/><stop stop-opacity="1" stop-color="rgb(68.757629%, 92.965698%, 63.043213%)" offset="0.890625"/><stop stop-opacity="1" stop-color="rgb(68.962097%, 93.217468%, 62.890625%)" offset="0.894531"/><stop stop-opacity="1" stop-color="rgb(69.166565%, 93.469238%, 62.739563%)" offset="0.898438"/><stop stop-opacity="1" stop-color="rgb(69.371033%, 93.719482%, 62.588501%)" offset="0.902344"/><stop stop-opacity="1" stop-color="rgb(69.577026%, 93.971252%, 62.437439%)" offset="0.90625"/><stop stop-opacity="1" stop-color="rgb(69.781494%, 94.221497%, 62.284851%)" offset="0.910156"/><stop stop-opacity="1" stop-color="rgb(69.987488%, 94.473267%, 62.133789%)" offset="0.914062"/><stop stop-opacity="1" stop-color="rgb(70.191956%, 94.723511%, 61.981201%)" offset="0.917969"/><stop stop-opacity="1" stop-color="rgb(70.397949%, 94.975281%, 61.830139%)" offset="0.921875"/><stop stop-opacity="1" stop-color="rgb(70.602417%, 95.227051%, 61.679077%)" offset="0.925781"/><stop stop-opacity="1" stop-color="rgb(70.808411%, 95.478821%, 61.528015%)" offset="0.929688"/><stop stop-opacity="1" stop-color="rgb(71.012878%, 95.729065%, 61.375427%)" offset="0.933594"/><stop stop-opacity="1" stop-color="rgb(71.217346%, 95.980835%, 61.224365%)" offset="0.9375"/><stop stop-opacity="1" stop-color="rgb(71.421814%, 96.231079%, 61.071777%)" offset="0.941406"/><stop stop-opacity="1" stop-color="rgb(71.627808%, 96.482849%, 60.920715%)" offset="0.945312"/><stop stop-opacity="1" stop-color="rgb(71.832275%, 96.733093%, 60.769653%)" offset="0.949219"/><stop stop-opacity="1" stop-color="rgb(72.038269%, 96.984863%, 60.618591%)" offset="0.953125"/><stop stop-opacity="1" stop-color="rgb(72.242737%, 97.235107%, 60.466003%)" offset="0.957031"/><stop stop-opacity="1" stop-color="rgb(72.44873%, 97.486877%, 60.314941%)" offset="0.960938"/><stop stop-opacity="1" stop-color="rgb(72.653198%, 97.738647%, 60.162354%)" offset="0.964844"/><stop stop-opacity="1" stop-color="rgb(72.859192%, 97.990417%, 60.011292%)" offset="0.96875"/><stop stop-opacity="1" stop-color="rgb(73.06366%, 98.240662%, 59.860229%)" offset="0.972656"/><stop stop-opacity="1" stop-color="rgb(73.268127%, 98.492432%, 59.709167%)" offset="0.976562"/><stop stop-opacity="1" stop-color="rgb(73.472595%, 98.742676%, 59.55658%)" offset="0.980469"/><stop stop-opacity="1" stop-color="rgb(73.678589%, 98.994446%, 59.405518%)" offset="0.984375"/><stop stop-opacity="1" stop-color="rgb(73.883057%, 99.24469%, 59.25293%)" offset="0.988281"/><stop stop-opacity="1" stop-color="rgb(74.08905%, 99.49646%, 59.101868%)" offset="0.992188"/><stop stop-opacity="1" stop-color="rgb(74.293518%, 99.746704%, 58.950806%)" offset="0.996094"/><stop stop-opacity="1" stop-color="rgb(74.499512%, 99.998474%, 58.799744%)" offset="1"/></linearGradient></defs><g clip-path="url(#eae788924d)"><g clip-path="url(#4c015f7904)"><path fill="url(#0fa2179932)" d="M 37.5 37.5 L 37.5 337.5 L 337.5 337.5 L 337.5 37.5 Z M 37.5 37.5 " fill-rule="nonzero"/></g></g><g fill="#ffffff" fill-opacity="1"><g transform="translate(15.936747, 270.950582)"><g><path d="M 27.609375 -57.21875 C 24.785156 -58.851562 22.148438 -60.671875 19.703125 -62.671875 C 17.253906 -64.671875 15.066406 -67.007812 13.140625 -69.6875 C 10.316406 -73.84375 8.941406 -78.144531 9.015625 -82.59375 C 9.085938 -87.050781 10.421875 -91.132812 13.015625 -94.84375 C 15.617188 -98.550781 19.296875 -101.148438 24.046875 -102.640625 C 29.242188 -104.273438 34.328125 -104.679688 39.296875 -103.859375 C 44.265625 -103.046875 49.050781 -101.523438 53.65625 -99.296875 C 59.738281 -96.472656 65.378906 -92.984375 70.578125 -88.828125 C 75.773438 -84.671875 80.894531 -80.441406 85.9375 -76.140625 C 88.613281 -73.910156 91.285156 -71.644531 93.953125 -69.34375 C 96.628906 -67.050781 99.300781 -64.789062 101.96875 -62.5625 C 102.269531 -62.851562 102.457031 -63.109375 102.53125 -63.328125 C 102.601562 -63.554688 102.710938 -63.742188 102.859375 -63.890625 C 110.273438 -84.078125 118.625 -103.816406 127.90625 -123.109375 C 137.1875 -142.410156 146.722656 -161.632812 156.515625 -180.78125 C 163.785156 -194.882812 171.207031 -208.875 178.78125 -222.75 C 186.351562 -236.625 194.515625 -250.171875 203.265625 -263.390625 C 204.160156 -264.578125 205.125 -265.613281 206.15625 -266.5 C 207.195312 -267.394531 208.460938 -267.914062 209.953125 -268.0625 C 213.210938 -268.800781 214.25 -267.6875 213.0625 -264.71875 C 212.03125 -261.75 210.695312 -258.78125 209.0625 -255.8125 C 200.15625 -239.632812 191.285156 -223.492188 182.453125 -207.390625 C 173.617188 -191.285156 165.269531 -174.847656 157.40625 -158.078125 C 150.28125 -142.785156 143.191406 -127.457031 136.140625 -112.09375 C 129.085938 -96.738281 122.519531 -81.117188 116.4375 -65.234375 C 116.289062 -64.640625 116.066406 -64.046875 115.765625 -63.453125 C 115.472656 -62.859375 115.398438 -62.191406 115.546875 -61.453125 C 117.773438 -61.742188 119.960938 -62.257812 122.109375 -63 C 124.265625 -63.75 126.382812 -64.492188 128.46875 -65.234375 C 140.488281 -69.535156 152.140625 -74.726562 163.421875 -80.8125 C 174.703125 -86.90625 185.832031 -93.140625 196.8125 -99.515625 C 214.320312 -109.753906 231.578125 -120.40625 248.578125 -131.46875 C 265.578125 -142.53125 282.164062 -154.144531 298.34375 -166.3125 C 308.4375 -173.882812 318.269531 -181.785156 327.84375 -190.015625 C 337.414062 -198.253906 346.800781 -206.679688 356 -215.296875 C 358.519531 -217.523438 361.191406 -219.523438 364.015625 -221.296875 C 364.753906 -221.742188 365.53125 -222.078125 366.34375 -222.296875 C 367.164062 -222.523438 367.800781 -222.269531 368.25 -221.53125 C 368.84375 -220.9375 368.804688 -220.378906 368.140625 -219.859375 C 367.472656 -219.335938 366.914062 -218.851562 366.46875 -218.40625 C 342.570312 -194.507812 316.597656 -172.691406 288.546875 -152.953125 C 269.835938 -139.890625 250.757812 -127.269531 231.3125 -115.09375 C 211.875 -102.925781 192.132812 -91.28125 172.09375 -80.15625 C 163.039062 -75.25 153.875 -70.789062 144.59375 -66.78125 C 135.320312 -62.78125 125.710938 -59.441406 115.765625 -56.765625 C 111.765625 -55.585938 111.097656 -53.4375 113.765625 -50.3125 C 119.554688 -44.53125 124.972656 -38.445312 130.015625 -32.0625 C 135.066406 -25.675781 140.265625 -19.441406 145.609375 -13.359375 C 155.398438 -2.378906 165.566406 8.191406 176.109375 18.359375 C 186.648438 28.535156 198.003906 37.78125 210.171875 46.09375 C 214.921875 49.351562 219.851562 52.132812 224.96875 54.4375 C 230.09375 56.738281 235.328125 58.851562 240.671875 60.78125 C 249.128906 64.039062 257.070312 62.851562 264.5 57.21875 C 268.0625 54.550781 271.328125 51.617188 274.296875 48.421875 C 277.265625 45.234375 280.15625 42.003906 282.96875 38.734375 C 283.269531 38.441406 283.53125 38.109375 283.75 37.734375 C 283.976562 37.367188 284.164062 37.109375 284.3125 36.953125 C 284.90625 36.660156 285.535156 36.363281 286.203125 36.0625 C 286.867188 35.769531 287.5 35.921875 288.09375 36.515625 C 288.6875 36.960938 288.757812 37.441406 288.3125 37.953125 C 287.875 38.472656 287.503906 38.882812 287.203125 39.1875 C 284.828125 42.445312 282.378906 45.671875 279.859375 48.859375 C 277.335938 52.054688 274.519531 54.914062 271.40625 57.4375 C 264.125 63.082031 256.585938 66.347656 248.796875 67.234375 C 241.003906 68.128906 232.878906 67.09375 224.421875 64.125 C 213.285156 60.113281 203.078125 54.691406 193.796875 47.859375 C 184.523438 41.035156 175.585938 33.765625 166.984375 26.046875 C 157.035156 16.992188 147.570312 7.457031 138.59375 -2.5625 C 129.613281 -12.582031 120.96875 -23.007812 112.65625 -33.84375 C 111.914062 -34.726562 111.210938 -35.800781 110.546875 -37.0625 C 109.878906 -38.332031 108.953125 -38.890625 107.765625 -38.734375 C 106.867188 -38.585938 106.269531 -37.804688 105.96875 -36.390625 C 105.675781 -34.984375 105.382812 -33.6875 105.09375 -32.5 C 101.226562 -19.4375 97.882812 -6.335938 95.0625 6.796875 C 92.25 19.929688 90.546875 33.328125 89.953125 46.984375 C 89.796875 50.242188 90.015625 53.429688 90.609375 56.546875 C 91.203125 59.660156 91.722656 62.78125 92.171875 65.90625 C 92.472656 67.382812 93.175781 68.269531 94.28125 68.5625 C 95.394531 68.863281 96.625 69.085938 97.96875 69.234375 C 95.738281 71.171875 93.507812 72.023438 91.28125 71.796875 C 89.050781 71.578125 87.082031 70.6875 85.375 69.125 C 83.675781 67.570312 82.453125 65.828125 81.703125 63.890625 C 80.671875 60.921875 79.96875 57.988281 79.59375 55.09375 C 79.21875 52.207031 79.03125 49.28125 79.03125 46.3125 C 79.332031 30.726562 81.078125 15.4375 84.265625 0.4375 C 87.460938 -14.550781 91.359375 -29.46875 95.953125 -44.3125 C 96.253906 -44.90625 96.515625 -45.457031 96.734375 -45.96875 C 96.960938 -46.488281 97.148438 -47.046875 97.296875 -47.640625 C 97.890625 -49.578125 97.960938 -50.800781 97.515625 -51.3125 C 97.066406 -51.832031 95.878906 -51.945312 93.953125 -51.65625 C 82.378906 -49.425781 70.726562 -48.535156 59 -48.984375 C 53.507812 -49.273438 48.128906 -50.015625 42.859375 -51.203125 C 37.585938 -52.390625 32.503906 -54.394531 27.609375 -57.21875 Z M 21.375 -93.515625 C 19.144531 -90.390625 18.210938 -86.859375 18.578125 -82.921875 C 18.953125 -78.992188 20.625 -75.320312 23.59375 -71.90625 C 27.007812 -67.90625 30.832031 -64.675781 35.0625 -62.21875 C 39.289062 -59.769531 43.929688 -57.878906 48.984375 -56.546875 C 56.109375 -54.617188 63.269531 -53.835938 70.46875 -54.203125 C 77.664062 -54.578125 84.898438 -55.210938 92.171875 -56.109375 C 92.023438 -56.398438 91.914062 -56.65625 91.84375 -56.875 C 91.769531 -57.101562 91.65625 -57.289062 91.5 -57.4375 C 85.71875 -62.78125 79.929688 -68.195312 74.140625 -73.6875 C 68.347656 -79.1875 62.1875 -84.234375 55.65625 -88.828125 C 48.976562 -93.578125 41.78125 -96.84375 34.0625 -98.625 C 28.71875 -99.96875 24.488281 -98.265625 21.375 -93.515625 Z M 21.375 -93.515625 "/></g></g></g><g fill="#ffffff" fill-opacity="1"><g transform="translate(187.499992, 252.639589)"><g><path d="M 12.03125 -5.5 C 11.914062 -6.070312 11.859375 -6.726562 11.859375 -7.46875 C 11.859375 -8.21875 11.6875 -8.992188 11.34375 -9.796875 C 10.3125 -8.765625 9.304688 -7.789062 8.328125 -6.875 C 7.359375 -5.957031 6.414062 -5.039062 5.5 -4.125 C 4.238281 -2.75 2.75 -1.601562 1.03125 -0.6875 C -1.144531 0.34375 -3.347656 0.285156 -5.578125 -0.859375 C -7.816406 -2.003906 -8.9375 -3.78125 -8.9375 -6.1875 C -9.050781 -13.300781 -7.675781 -19.722656 -4.8125 -25.453125 C -1.945312 -31.179688 2.578125 -36 8.765625 -39.90625 C 11.410156 -41.507812 14.019531 -42.222656 16.59375 -42.046875 C 19.175781 -41.878906 21.726562 -41.050781 24.25 -39.5625 C 24.9375 -39.101562 25.59375 -38.703125 26.21875 -38.359375 C 26.851562 -38.015625 27.628906 -38.015625 28.546875 -38.359375 C 29.117188 -38.585938 29.660156 -38.554688 30.171875 -38.265625 C 30.691406 -37.984375 31.179688 -37.726562 31.640625 -37.5 C 33.472656 -36.6875 34.503906 -35.847656 34.734375 -34.984375 C 34.960938 -34.128906 34.617188 -32.785156 33.703125 -30.953125 C 32.441406 -28.773438 31.125 -26.566406 29.75 -24.328125 C 28.375 -22.097656 27.226562 -19.78125 26.3125 -17.375 C 23.90625 -11.40625 22.757812 -5.441406 22.875 0.515625 C 22.875 3.265625 23.390625 5.84375 24.421875 8.25 C 25.335938 10.425781 27.113281 11.628906 29.75 11.859375 C 32.382812 11.859375 34.847656 11.457031 37.140625 10.65625 C 39.441406 9.851562 41.679688 8.878906 43.859375 7.734375 C 46.722656 6.359375 50.445312 4.320312 55.03125 1.625 C 59.625 -1.0625 64.613281 -4.035156 70 -7.296875 C 75.382812 -10.566406 80.800781 -13.78125 86.25 -16.9375 C 91.695312 -20.09375 96.769531 -22.898438 101.46875 -25.359375 C 106.164062 -27.828125 110.175781 -29.578125 113.5 -30.609375 C 116.832031 -31.640625 118.957031 -31.582031 119.875 -30.4375 C 119.875 -30.4375 119.988281 -30.035156 120.21875 -29.234375 C 115.976562 -28.773438 111.191406 -27.253906 105.859375 -24.671875 C 100.523438 -22.097656 94.960938 -18.972656 89.171875 -15.296875 C 83.378906 -11.628906 77.617188 -7.847656 71.890625 -3.953125 C 66.160156 -0.0546875 60.742188 3.519531 55.640625 6.78125 C 50.535156 10.050781 45.976562 12.550781 41.96875 14.28125 C 37.03125 16.34375 31.984375 16.6875 26.828125 15.3125 C 21.671875 13.9375 17.601562 10.492188 14.625 4.984375 C 13.820312 3.378906 13.25 1.691406 12.90625 -0.078125 C 12.5625 -1.859375 12.269531 -3.664062 12.03125 -5.5 Z M 2.40625 -7.5625 C 6.414062 -11.007812 9.851562 -14.878906 12.71875 -19.171875 C 15.59375 -23.472656 18.40625 -27.800781 21.15625 -32.15625 C 21.613281 -32.84375 21.726562 -33.441406 21.5 -33.953125 C 21.269531 -34.472656 20.984375 -34.960938 20.640625 -35.421875 C 20.296875 -35.992188 19.863281 -36.28125 19.34375 -36.28125 C 18.832031 -36.28125 18.347656 -36.164062 17.890625 -35.9375 C 17.203125 -35.476562 16.484375 -35.078125 15.734375 -34.734375 C 14.992188 -34.390625 14.335938 -33.929688 13.765625 -33.359375 C 10.546875 -30.609375 7.789062 -27.570312 5.5 -24.25 C 3.207031 -20.925781 1.257812 -17.257812 -0.34375 -13.25 C -0.800781 -12.09375 -1.203125 -10.796875 -1.546875 -9.359375 C -1.890625 -7.929688 -2.0625 -6.242188 -2.0625 -4.296875 C -1.144531 -4.984375 -0.316406 -5.582031 0.421875 -6.09375 C 1.171875 -6.613281 1.832031 -7.101562 2.40625 -7.5625 Z M 2.40625 -7.5625 "/></g></g></g><g fill="#ffffff" fill-opacity="1"><g transform="translate(303.590891, 252.639589)"><g><path d="M 13.765625 -41.453125 C 15.828125 -39.734375 16.113281 -37.609375 14.625 -35.078125 C 13.132812 -32.554688 11.582031 -30.117188 9.96875 -27.765625 C 8.363281 -25.421875 6.757812 -22.929688 5.15625 -20.296875 C 1.71875 -14.554688 -1.203125 -8.617188 -3.609375 -2.484375 C -6.015625 3.640625 -7.5625 10.085938 -8.25 16.859375 C -8.363281 18.691406 -8.421875 20.492188 -8.421875 22.265625 C -8.421875 24.046875 -8.191406 25.851562 -7.734375 27.6875 C -7.390625 29.175781 -6.898438 30.148438 -6.265625 30.609375 C -5.640625 31.066406 -4.582031 31.238281 -3.09375 31.125 C -1.03125 31.007812 0.828125 30.492188 2.484375 29.578125 C 4.148438 28.660156 5.785156 27.628906 7.390625 26.484375 C 10.253906 24.535156 12.832031 22.328125 15.125 19.859375 C 17.425781 17.398438 19.78125 14.96875 22.1875 12.5625 C 26.425781 8.082031 30.8125 3.8125 35.34375 -0.25 C 39.875 -4.320312 44.773438 -7.960938 50.046875 -11.171875 C 53.710938 -13.472656 57.46875 -15.507812 61.3125 -17.28125 C 65.15625 -19.0625 68.96875 -20.867188 72.75 -22.703125 C 74.695312 -23.617188 76.644531 -24.535156 78.59375 -25.453125 C 80.539062 -26.367188 82.488281 -27.226562 84.4375 -28.03125 C 85.007812 -28.257812 85.554688 -28.488281 86.078125 -28.71875 C 86.597656 -28.945312 87.203125 -29.003906 87.890625 -28.890625 C 88.804688 -28.890625 89.265625 -28.546875 89.265625 -27.859375 C 89.378906 -27.285156 88.976562 -26.882812 88.0625 -26.65625 C 84.269531 -25.28125 80.625 -23.703125 77.125 -21.921875 C 73.632812 -20.148438 70.054688 -18.40625 66.390625 -16.6875 C 60.078125 -13.582031 54.226562 -9.910156 48.84375 -5.671875 C 43.457031 -1.429688 38.351562 3.207031 33.53125 8.25 C 29.632812 12.382812 25.679688 16.515625 21.671875 20.640625 C 17.660156 24.765625 13.472656 28.660156 9.109375 32.328125 C 8.648438 32.785156 8.160156 33.242188 7.640625 33.703125 C 7.128906 34.160156 6.585938 34.5625 6.015625 34.90625 C -0.171875 38.8125 -5.613281 38.007812 -10.3125 32.5 C -11.457031 30.894531 -12.429688 29.234375 -13.234375 27.515625 C -14.046875 25.796875 -14.679688 24.019531 -15.140625 22.1875 C -16.171875 17.488281 -16.34375 12.84375 -15.65625 8.25 C -14.738281 -0.6875 -12.414062 -8.992188 -8.6875 -16.671875 C -4.957031 -24.359375 -0.457031 -31.703125 4.8125 -38.703125 C 5.269531 -39.160156 5.695312 -39.585938 6.09375 -39.984375 C 6.5 -40.390625 6.929688 -40.820312 7.390625 -41.28125 C 9.453125 -43.226562 11.578125 -43.285156 13.765625 -41.453125 Z M 21.671875 -49.875 C 20.523438 -50.332031 19.460938 -50.988281 18.484375 -51.84375 C 17.515625 -52.707031 16.800781 -53.769531 16.34375 -55.03125 C 16.113281 -55.832031 16.171875 -56.460938 16.515625 -56.921875 C 16.859375 -57.378906 17.429688 -57.550781 18.234375 -57.4375 C 19.722656 -57.320312 21.066406 -56.691406 22.265625 -55.546875 C 23.472656 -54.398438 24.078125 -53.195312 24.078125 -51.9375 C 24.191406 -51.132812 24.019531 -50.53125 23.5625 -50.125 C 23.101562 -49.726562 22.472656 -49.644531 21.671875 -49.875 Z M 21.671875 -49.875 "/></g></g></g></svg>